<?xml version="1.0" encoding="utf-8"?>
<!-- Generator: Adobe Illustrator 17.0.0, SVG Export Plug-In . SVG Version: 6.00 Build 0)  -->
<!DOCTYPE svg PUBLIC "-//W3C//DTD SVG 1.1//EN" "http://www.w3.org/Graphics/SVG/1.1/DTD/svg11.dtd">
<svg version="1.1" id="Ebene_1" xmlns="http://www.w3.org/2000/svg" xmlns:xlink="http://www.w3.org/1999/xlink" x="0px" y="0px"
	 width="200px" height="200px" viewBox="0 0 200 200" enable-background="new 0 0 200 200" xml:space="preserve">
<g>
	<path fill="#314F94" d="M70.345,97.891c-0.586-16.833-1.179-33.666-1.753-50.5c-0.128-3.771,0.081-7.573-0.331-11.31
		c-1.067-9.678,3.142-16.473,11.562-20.442c12.543-5.913,25.222-6.518,37.422,1.138c5.494,3.447,8.333,8.758,8.574,15.152
		c0.64,16.964,1.046,33.936,1.545,50.905c-2.074-0.166-4.264-0.06-5.436-2.329c-0.141-2.748-0.347-5.494-0.413-8.243
		c-0.292-12.178-0.537-24.357-0.818-36.534c-0.053-2.306-0.512-4.519-2.256-6.199c-2.328-2.241-5.652-1.434-6.51,1.656
		c-0.361,1.299-0.326,2.737-0.298,4.109c0.247,12.179,0.516,24.358,0.824,36.536c0.054,2.122,0.326,4.239,0.497,6.359
		c-1.128,0.028-2.197,0.11-3.173,0.865c-10.45,8.082-22.419,13.391-34.359,18.751c-0.267,0.052-0.534,0.104-0.801,0.155
		c-1.042-0.019-2.084-0.038-3.126-0.056C71.112,97.899,70.729,97.895,70.345,97.891z"/>
	<path fill="#2661EC" d="M121.929,80.505c1.172,2.269,3.363,2.163,5.436,2.329c7.022,2.643,14.448,3.026,21.789,3.794
		c6.825,0.714,6.797,0.594,7.032,7.224c0.209,5.896,0.522,11.788,0.789,17.681c-0.239,2.051-0.308,4.096,0.23,6.118
		c0.437,11.171,0.822,22.344,1.354,33.511c0.116,2.441-0.506,4.209-2.305,5.964c-7.913,7.722-15.747,15.53-23.433,23.477
		c-2.069,2.139-3.659,2.751-6.368,1.092c-2.399-1.469-4.781-3.344-7.879-3.289c-0.325-1.326-1.58-1.52-2.541-2.02
		c-7.796-4.057-15.567-8.164-23.44-12.066c-2.371-1.175-3.684-2.795-4.232-5.305c-0.986-4.513-2.083-9.002-3.134-13.501
		c-1.841-8.68-3.756-17.345-5.501-26.045c-1.448-7.219-3.875-14.246-4.302-21.667c11.94-5.359,23.909-10.668,34.359-18.75
		c0.976-0.755,2.045-0.837,3.175-0.864C115.877,79.239,118.664,80.795,121.929,80.505z M110.853,113.943
		c6.454-2.296,6.441-2.292,4.626-8.547c-0.377-1.298-0.182-2.546,1.015-3.364c1.036-0.709,2.185-0.671,3.158,0.117
		c1.11,0.899,1.449,2.267,0.75,3.401c-1.184,1.92-2.461,4.502-0.667,5.709c1.721,1.158,4.46,2.334,7.009,0.932
		c0.442,2.696,1.679,2.847,3.3,0.908c1.539-1.841,2.909-3.823,4.354-5.742c3.366-3.907,6.737-7.81,10.095-11.725
		c0.558-0.651,1.472-1.266,1.188-2.21c-0.324-1.077-1.474-0.748-2.288-0.81c-9.989-0.762-19.618-3.062-28.931-6.714
		c-1.365-0.535-2.533-0.711-3.859,0.271c-8.342,6.179-17.538,10.837-27.066,14.858c-1.872,0.79-2.297,1.74-1.836,3.745
		c3.097,13.474,6.016,26.989,9.085,40.47c0.676,2.97,0.936,6.084,2.485,9.318c4.948-5.704,9.487-11.239,14.371-16.451
		c2.753-2.937,1.842-4.651-1.079-6.318c-0.107-0.552-0.215-1.103-0.322-1.655c-0.264-2.314-0.528-4.629-0.792-6.943
		c0.059-0.582,0.118-1.163,0.176-1.745c1.345-2.222,2.982-4.29,3.635-6.878C109.792,114.36,110.323,114.151,110.853,113.943z
		 M131.374,137.032c-0.039,0.603-0.078,1.207-0.118,1.81c-2.57-1.968-5.225-1.528-8.487,1.405c-0.195-0.043-0.39-0.044-0.585-0.001
		c-1.656-1.06-3.626-0.76-5.424-1.243c-3.648-0.979-5.002,0.164-4.819,4.028c0.12,2.538-0.984,4.058-3.458,3.591
		c-1.598-0.302-2.324,0.264-3.163,1.242c-2.373,2.763-4.691,5.577-7.159,8.252c-1.591,1.725-1.163,2.577,0.786,3.572
		c8.721,4.457,17.413,8.972,26.04,13.607c2.037,1.095,3.292,0.811,4.869-0.808c6.663-6.841,13.431-13.58,20.224-20.293
		c1.348-1.332,1.985-2.683,1.898-4.632c-0.497-11.17-0.852-22.346-1.307-33.518c-0.218-5.34-0.552-10.674-0.827-15.904
		c-1.091-0.282-1.468,0.285-1.865,0.728c-4.442,4.956-8.985,9.828-13.225,14.951c-1.091,1.318-3.088,2.371-2.754,4.635
		c0.054,1.082,0.66,1.749,1.62,2.148c-0.326,2.217,0.608,4.258,0.894,6.39c-0.071,0.598-0.143,1.196-0.214,1.794
		C133.713,131.675,130.31,133.561,131.374,137.032z"/>
	<path fill="#345195" d="M71.552,145.731c-12.848,0.124-25.659-0.098-38.086-3.998c-4.458-1.399-8.771-3.117-12.62-5.813
		c-9.811-6.872-11.632-17.034-4.848-26.916c3.923-5.713,9.256-9.912,15-13.585c10.012-6.404,20.89-10.974,32.08-14.883
		c2.599-0.908,2.971-0.23,3.291,2.33c0.556,4.452-0.895,6.717-5.198,8.296c-6.746,2.475-12.863,6.277-18.262,11.122
		c-1.886,1.693-3.508,3.592-4.883,5.718c-4.893,7.565-3.452,15.391,4.165,20.266c8.911,5.703,18.968,6.923,29.306,6.612
		c3.198,0.562,7.108-1.221,9.476,0.723c2.342,1.923,2.111,5.918,2.691,9.089C79.708,145.989,75.569,145.148,71.552,145.731z"/>
	<path fill="#365396" d="M158.405,111.488c-0.518-2.919,0.627-4.962,3.034-6.662c2.577-1.821,4.593-4.277,6.35-6.908
		c4.203-6.293,3.136-11.541-3.254-15.72c-4.608-3.014-9.837-4.381-15.148-5.481c-5.681-1.176-11.435-1.608-17.229-1.757
		c-5.24-0.135-2.694-4.443-3.293-6.855c-0.715-2.88,1.977-1.895,3.293-1.922c13.389-0.266,26.635,0.684,39.415,5.127
		c3.819,1.328,7.434,3.055,10.644,5.563c4.718,3.686,6.44,8.404,5.33,14.324c-1.353,7.221-5.048,13.048-10.179,18.103
		c-4.142,4.081-8.862,7.409-13.719,10.566c-4.369,2.84-4.353,2.865-4.787-2.175C159.345,115.576,158.79,113.538,158.405,111.488z"/>
	<path fill="#61A7F7" d="M71.552,145.731c4.017-0.583,8.156,0.258,12.112-1.039c0.33,0.636,0.906,0.805,1.562,0.823
		c1.051,4.499,2.148,8.988,3.134,13.501c0.548,2.51,1.861,4.13,4.232,5.305c7.873,3.902,15.644,8.009,23.44,12.066
		c0.961,0.5,2.216,0.694,2.541,2.02c-4.299,3.209-9.28,4.031-14.467,4.133c-2.275-1.217-4.547-1.239-6.816,0.016
		c-9.601-0.614-18.02-3.514-23.06-12.459c-2.871-5.097-1.748-10.778-1.891-16.257c1.102-1.564,1.411-3.091-0.21-4.529
		C71.936,148.117,71.744,146.924,71.552,145.731z"/>
	<path fill="#65A7F6" d="M85.226,145.514c-0.656-0.017-1.232-0.187-1.562-0.823c-0.581-3.172-0.349-7.167-2.691-9.089
		c-2.368-1.944-6.278-0.161-9.476-0.723c-0.385-12.33-0.769-24.66-1.153-36.989c0.384,0.005,0.768,0.009,1.153,0.013
		c1.024,1.025,2.065,1.049,3.124,0.056c0.267-0.051,0.534-0.103,0.801-0.155c0.428,7.42,2.854,14.446,4.302,21.666
		C81.47,128.169,83.384,136.834,85.226,145.514z"/>
	<path fill="#65A7F6" d="M97.289,182.556c2.269-1.255,4.541-1.234,6.816-0.016C101.835,183.47,99.563,183.398,97.289,182.556z"/>
	<path fill="#65A7F6" d="M72.128,149.31c1.621,1.438,1.312,2.965,0.21,4.529C71.561,152.363,71.661,150.845,72.128,149.31z"/>
	<path fill="#326EFA" d="M121.929,80.505c-3.264,0.291-6.052-1.266-8.972-2.316c-0.173-2.12-0.445-4.237-0.499-6.36
		c-0.309-12.178-0.577-24.357-0.824-36.536c-0.028-1.371-0.062-2.81,0.298-4.109c0.858-3.09,4.182-3.897,6.51-1.656
		c1.744,1.679,2.203,3.892,2.256,6.199c0.281,12.178,0.526,24.357,0.818,36.534C121.582,75.011,121.787,77.757,121.929,80.505z"/>
	<path fill="#A0C7F5" d="M74.622,97.959c-1.059,0.993-2.1,0.969-3.124-0.056C72.538,97.922,73.58,97.941,74.622,97.959z"/>
	<path fill="#F8F9FD" d="M122.77,140.247c3.262-2.933,5.917-3.372,8.487-1.405c0.144,0.733,0.299,1.465,0.428,2.201
		c0.324,1.838,1.301,2.997,3.271,2.897c1.453-0.074,2.314-0.991,2.367-2.422c0.071-1.926-1.002-3.125-2.875-3.271
		c-1.214-0.094-2.106-0.673-3.074-1.214c-1.064-3.471,2.339-5.357,2.924-8.243c0.51,0.034,1.02,0.068,1.53,0.102
		c1.286,0.481,2.38,1.085,3.263,2.296c1.028,1.411,2.61,1.315,3.99,0.308c1.021-0.745,1.308-1.85,0.783-2.995
		c-0.72-1.57-2.121-2.336-3.672-1.661c-1.48,0.644-2.895,0.514-4.367,0.504c-0.437-0.116-0.874-0.233-1.312-0.349
		c-0.285-2.132-1.219-4.173-0.894-6.39c1.466-0.228,2.435-1.859,4.162-1.407c2.016,0.527,3.566-0.138,4.048-2.227
		c0.288-1.249-0.313-2.718-1.519-3.022c-1.834-0.463-3.719-0.259-4.518,2.062c-0.604,1.756-2.02,2.42-3.794,2.445
		c-0.335-2.265,1.662-3.317,2.754-4.635c4.24-5.123,8.783-9.996,13.225-14.951c0.397-0.443,0.774-1.01,1.865-0.728
		c0.276,5.23,0.609,10.565,0.827,15.904c0.456,11.172,0.81,22.348,1.307,33.518c0.087,1.949-0.55,3.3-1.898,4.632
		c-6.793,6.712-13.561,13.452-20.224,20.293c-1.577,1.619-2.832,1.903-4.869,0.808c-8.627-4.635-17.319-9.15-26.04-13.607
		c-1.948-0.996-2.377-1.847-0.786-3.572c2.468-2.675,4.786-5.49,7.159-8.252c0.84-0.977,1.565-1.543,3.163-1.242
		c2.474,0.467,3.579-1.054,3.458-3.591c-0.183-3.865,1.171-5.008,4.819-4.028c1.798,0.483,3.768,0.183,5.424,1.243
		c1.09,2.155-0.833,3.078-1.77,4.436c-0.95,1.378-1.013,2.853,0.256,4.079c1.041,1.005,2.341,0.939,3.43,0.115
		c1.423-1.077,1.716-2.836,0.543-3.935C123.165,143.554,123.934,141.568,122.77,140.247z"/>
	<path fill="#F7F9FD" d="M126.745,112.19c-2.549,1.401-5.289,0.225-7.009-0.932c-1.794-1.207-0.517-3.789,0.667-5.709
		c0.699-1.134,0.36-2.502-0.75-3.401c-0.973-0.788-2.122-0.825-3.158-0.117c-1.197,0.819-1.392,2.066-1.015,3.364
		c1.815,6.255,1.828,6.251-4.626,8.547c-0.968-1.548-2.404-2.73-2.63-4.825c-0.175-1.629-1.664-2.421-3.405-2.207
		c-1.285,0.158-2.085,0.964-2.166,2.213c-0.11,1.679,0.665,3.117,2.366,3.32c1.759,0.21,2.96,1.164,4.244,2.125
		c-0.653,2.588-2.29,4.656-3.635,6.878c-1.372-0.311-2.429-0.989-3.341-2.14c-1.037-1.308-2.563-1.524-3.998-0.584
		c-1.192,0.781-1.416,2.045-0.872,3.3c0.714,1.645,2.195,2.126,3.709,1.495c1.475-0.615,2.848-0.684,4.326-0.327
		c0.264,2.314,0.528,4.629,0.792,6.943c-1.467,0.688-2.876,1.312-4.64,1.054c-1.501-0.219-2.671,0.647-2.924,2.287
		c-0.211,1.366,0.171,2.547,1.582,3.05c1.497,0.533,2.936,0.055,3.533-1.314c0.638-1.462,1.65-2.444,2.772-3.422
		c2.921,1.667,3.832,3.38,1.079,6.318c-4.884,5.212-9.423,10.747-14.371,16.451c-1.549-3.234-1.808-6.348-2.485-9.318
		c-3.07-13.481-5.988-26.996-9.085-40.47c-0.461-2.005-0.036-2.955,1.836-3.745c9.528-4.021,18.723-8.679,27.066-14.858
		c1.326-0.982,2.493-0.807,3.859-0.271c9.313,3.652,18.943,5.952,28.931,6.714c0.814,0.062,1.964-0.267,2.288,0.81
		c0.284,0.943-0.63,1.559-1.188,2.21c-3.357,3.915-6.728,7.818-10.095,11.724c-0.31-0.114-0.62-0.227-0.929-0.341
		c-0.268-2.482-2.245-2.753-3.855-2.25c-2.15,0.672-1.553,2.774-1.345,4.488C127.511,110.102,126.852,111.003,126.745,112.19z"/>
	<path fill="#2661EC" d="M132,118.457c1.774-0.025,3.19-0.689,3.794-2.445c0.798-2.321,2.684-2.526,4.518-2.062
		c1.206,0.305,1.807,1.773,1.519,3.022c-0.482,2.089-2.032,2.754-4.048,2.227c-1.728-0.452-2.696,1.179-4.162,1.407
		C132.66,120.206,132.054,119.539,132,118.457z"/>
	<path fill="#2661EC" d="M109.261,114.569c-1.284-0.961-2.484-1.915-4.244-2.125c-1.701-0.203-2.475-1.641-2.366-3.32
		c0.082-1.249,0.881-2.055,2.166-2.213c1.742-0.214,3.231,0.579,3.405,2.207c0.225,2.095,1.662,3.278,2.63,4.825
		C110.323,114.151,109.792,114.36,109.261,114.569z"/>
	<path fill="#2661EC" d="M106.564,131.789c-1.122,0.978-2.134,1.96-2.772,3.422c-0.597,1.368-2.035,1.847-3.533,1.314
		c-1.411-0.503-1.793-1.683-1.582-3.05c0.254-1.639,1.424-2.506,2.924-2.287c1.764,0.258,3.173-0.366,4.64-1.054
		C106.349,130.686,106.457,131.237,106.564,131.789z"/>
	<path fill="#2661EC" d="M131.374,137.032c0.968,0.542,1.86,1.12,3.074,1.214c1.873,0.145,2.947,1.345,2.875,3.271
		c-0.053,1.431-0.915,2.349-2.367,2.422c-1.97,0.1-2.947-1.059-3.271-2.897c-0.13-0.736-0.285-1.467-0.428-2.201
		C131.296,138.239,131.335,137.635,131.374,137.032z"/>
	<path fill="#2661EC" d="M105.45,123.192c-1.477-0.358-2.851-0.288-4.326,0.327c-1.514,0.631-2.995,0.15-3.709-1.495
		c-0.544-1.255-0.32-2.519,0.872-3.3c1.434-0.94,2.961-0.724,3.998,0.584c0.912,1.151,1.969,1.829,3.341,2.14
		C105.568,122.028,105.509,122.61,105.45,123.192z"/>
	<path fill="#2661EC" d="M122.77,140.247c1.164,1.321,0.395,3.308,1.875,4.695c1.173,1.099,0.88,2.859-0.543,3.935
		c-1.089,0.824-2.39,0.89-3.43-0.115c-1.269-1.226-1.206-2.701-0.256-4.079c0.937-1.359,2.86-2.281,1.77-4.436
		C122.38,140.203,122.575,140.203,122.77,140.247z"/>
	<path fill="#2661EC" d="M126.745,112.19c0.108-1.187,0.766-2.088,1.524-2.938c2.29,0.547,3.676-1.006,5.2-2.239
		c0.31,0.113,0.62,0.227,0.929,0.341c-1.444,1.92-2.815,3.902-4.354,5.743C128.424,115.037,127.187,114.886,126.745,112.19z"/>
	<path fill="#4275EE" d="M134.513,126.995c0.437,0.116,0.874,0.233,1.312,0.349c0.001,0.516,0.002,1.032,0.004,1.547
		c-0.51-0.034-1.02-0.068-1.53-0.102C134.37,128.191,134.442,127.593,134.513,126.995z"/>
	<path fill="#2661EC" d="M135.828,128.891c-0.001-0.516-0.002-1.032-0.004-1.547c1.472,0.011,2.888,0.14,4.367-0.504
		c1.552-0.675,2.952,0.091,3.672,1.661c0.525,1.144,0.238,2.25-0.783,2.995c-1.38,1.007-2.962,1.102-3.99-0.308
		C138.208,129.976,137.114,129.372,135.828,128.891z"/>
	<path fill="#2661EC" d="M133.469,107.014c-1.524,1.232-2.91,2.786-5.2,2.239c-0.208-1.714-0.805-3.816,1.345-4.488
		C131.224,104.261,133.201,104.532,133.469,107.014z"/>
</g>
</svg>
